<svg width="26" height="30" viewBox="0 0 26 30" fill="none" xmlns="http://www.w3.org/2000/svg">
<path d="M1.86523 9.78223H1.78838C0.803236 9.78223 0 10.588 0 11.5706V19.3569C0 20.3434 0.803236 21.1465 1.78838 21.1465H1.86654C2.85168 21.1465 3.65492 20.3407 3.65492 19.3569V11.5705C3.65361 10.588 2.84913 9.78223 1.86523 9.78223Z" fill="#010002"/>
<path d="M4.51065 22.3623C4.51065 23.2667 5.24981 24.0033 6.15424 24.0033H7.91061V28.2091C7.91061 29.1968 8.7164 30 9.69899 30H9.77584C10.7623 30 11.5668 29.1955 11.5668 28.2091V24.0033H14.0213V28.2091C14.0213 29.1968 14.8297 30 15.8122 30H15.8879C16.8742 30 17.6775 29.1955 17.6775 28.2091V24.0033H19.4351C20.3382 24.0033 21.0774 23.2667 21.0774 22.3623V10.0679H4.51065V22.3623Z" fill="#010002"/>
<path d="M16.9203 2.61209L18.3154 0.458645C18.4051 0.322823 18.3654 0.137114 18.2283 0.0486836C18.0925 -0.0409937 17.9068 -0.00381626 17.8183 0.135807L16.372 2.3636C15.287 1.91908 14.0751 1.66929 12.7953 1.66929C11.5142 1.66929 10.3049 1.91908 9.21728 2.3636L7.77354 0.135807C7.68517 -0.00381626 7.49809 -0.0409937 7.36102 0.0486836C7.22395 0.137054 7.18422 0.322823 7.2739 0.458645L8.67025 2.61209C6.15293 3.84577 4.45554 6.17091 4.45554 8.83807C4.45554 9.00204 4.46581 9.16346 4.47989 9.32357H21.1119C21.126 9.16346 21.135 9.00204 21.135 8.83807C21.135 6.17091 19.4363 3.84577 16.9203 2.61209ZM8.93928 6.46809C8.49731 6.46809 8.1386 6.11194 8.1386 5.66872C8.1386 5.2255 8.49731 4.87059 8.93928 4.87059C9.38381 4.87059 9.73996 5.22544 9.73996 5.66872C9.73996 6.112 9.38125 6.46809 8.93928 6.46809ZM16.65 6.46809C16.2081 6.46809 15.8494 6.11194 15.8494 5.66872C15.8494 5.2255 16.2081 4.87059 16.65 4.87059C17.0933 4.87059 17.4494 5.22544 17.4494 5.66872C17.4494 6.11194 17.0933 6.46809 16.65 6.46809Z" fill="#010002"/>
<path d="M23.7996 9.78223H23.7253C22.7402 9.78223 21.9344 10.588 21.9344 11.5706V19.3569C21.9344 20.3434 22.7415 21.1465 23.7253 21.1465H23.8009C24.7873 21.1465 25.5893 20.3407 25.5893 19.3569V11.5705C25.5893 10.588 24.7848 9.78223 23.7996 9.78223Z" fill="#010002"/>
</svg>
