<svg width="25" height="30" viewBox="0 0 25 30" fill="none" xmlns="http://www.w3.org/2000/svg">
<path d="M20.4024 15.9402C20.3645 12.1409 23.5008 10.3188 23.6409 10.2283C21.8787 7.64959 19.1336 7.29633 18.1554 7.25549C15.8192 7.01895 13.5969 8.63092 12.4112 8.63092C11.2286 8.63092 9.39898 7.29047 7.46146 7.32569C4.9151 7.36354 2.56719 8.80629 1.25603 11.0868C-1.38959 15.6776 0.578513 22.4786 3.15711 26.2018C4.41711 28.0243 5.91957 30.0713 7.89225 29.9981C9.79191 29.9223 10.5103 28.7689 12.807 28.7689C15.1036 28.7689 15.7493 29.9981 17.7596 29.9604C19.8038 29.9224 21.0989 28.103 22.3502 26.275C23.7971 24.1607 24.3929 22.1137 24.4281 22.0086C24.3826 21.9879 20.4419 20.4782 20.4024 15.9402ZM16.6249 4.79069C17.672 3.52043 18.3787 1.75811 18.1859 0C16.6777 0.0614063 14.8497 1.00459 13.7676 2.27197C12.7967 3.39627 11.9468 5.1907 12.1746 6.91365C13.8582 7.04502 15.5768 6.05807 16.6249 4.79069Z" fill="black"/>
</svg>
